<svg width="88" height="94" viewBox="0 0 88 94" fill="none" xmlns="http://www.w3.org/2000/svg">
<path d="M69.7811 59.0778C70.0231 59.5364 70.1046 60.074 70.009 60.5921C69.0886 65.099 66.849 69.168 63.6207 72.1999C63.4437 72.3443 63.2948 72.5249 63.1824 72.7311C63.1421 72.8257 63.1213 72.9284 63.1213 73.0322C63.1213 73.1364 63.1421 73.239 63.1824 73.3333C63.2469 73.4141 63.3281 73.4777 63.4193 73.5185C63.5108 73.5597 63.6096 73.5772 63.7084 73.5696C64.1759 73.4354 64.6278 73.2452 65.056 73.0027C66.9497 71.8437 68.6227 70.3092 69.9871 68.4801C70.809 67.4057 71.6198 66.331 72.3978 65.2209C73.8629 63.0286 74.9471 60.5682 75.5976 57.959C76.1891 55.8454 76.6932 53.708 77.3069 51.5944C77.5576 50.8193 77.8616 50.0655 78.2165 49.3391C78.3592 49.1153 78.5246 48.9094 78.7095 48.725H78.863C79.0162 49.2799 79.2027 49.8114 79.3121 50.3782C79.5988 52.1607 79.6394 53.979 79.4328 55.7746C79.2054 58.1113 78.7612 60.4174 78.1069 62.6587C77.6486 64.0362 77.03 65.3455 76.266 66.5553C74.3459 69.9659 72.0781 73.1343 69.505 76.002C67.6094 77.9746 65.5601 79.7682 63.3795 81.363C63.2206 81.4508 63.076 81.5667 62.9523 81.7055C62.8248 81.8709 62.7585 82.081 62.7661 82.296C62.8118 82.392 62.8787 82.4742 62.9607 82.5361C63.0427 82.5979 63.1378 82.637 63.2371 82.6501C63.6954 82.6469 64.1519 82.5836 64.5958 82.4611C66.6205 81.8324 68.5141 80.7901 70.1733 79.391C74.8145 75.7038 78.5836 70.8898 81.1749 65.3391C82.8262 61.7176 83.8969 57.821 84.3417 53.8142C84.6083 51.2849 84.6341 48.7329 84.4186 46.1981C84.2304 44.899 84.2675 43.5737 84.5279 42.2895C84.597 41.9952 84.6963 41.7099 84.8238 41.4391C85.1197 40.825 85.5472 40.7897 85.832 41.4391C86.1316 42.0538 86.3528 42.7093 86.4895 43.3876C87.0911 46.6357 87.2792 49.9567 87.0483 53.2593C86.623 58.625 85.3712 63.8767 83.3447 68.799C81.2921 73.8671 78.2103 78.3746 74.3264 81.9888C73.0662 83.1697 71.861 84.3506 70.5569 85.4606C68.9909 86.6876 67.313 87.7402 65.5493 88.6013C61.6578 90.6849 57.5161 92.1753 53.2437 93.0295C50.6251 93.5193 47.9659 93.7095 45.3102 93.5963C44.0064 93.5963 42.6913 93.5021 41.3875 93.4312C38.4395 93.2553 35.5309 92.6187 32.7526 91.5417C28.7295 90.0331 24.8626 88.078 21.2142 85.7086C16.9594 82.8972 13.3307 79.1118 10.5852 74.6204C9.22982 72.5083 8.04916 70.2719 7.0568 67.9369C7.00621 67.7984 6.9248 67.6752 6.81971 67.5784C6.71462 67.4818 6.58907 67.4141 6.45411 67.3821C5.73353 67.1889 5.06316 66.8217 4.49363 66.3082C3.92413 65.7948 3.47042 65.1483 3.16678 64.4181C2.35425 62.2798 1.72343 60.0667 1.28206 57.8056C0.479009 54.1552 0.0490902 50.4214 0 46.6704C0.0329115 44.2954 0.234395 41.9269 0.602679 39.5852C1.01862 36.4036 1.75343 33.2798 2.79423 30.2686C3.71473 27.6334 5.00848 25.1677 6.62943 22.9593C7.57181 21.684 8.34981 20.2552 9.27024 18.9563C15.112 10.6362 23.4757 4.78641 32.9061 2.42467C34.725 1.95233 36.5442 1.45638 38.385 1.09032C40.0286 0.759693 41.6723 0.547147 43.3597 0.381829C45.3102 0.192898 47.2607 0.0275821 49.2223 0.00396556C57.0911 -0.11411 64.7997 2.40721 71.2803 7.21882C72.0188 7.70017 72.6842 8.30163 73.2524 9.00188C73.6723 9.55293 73.9517 10.2122 74.0635 10.9148C74.1068 11.0801 74.1945 11.228 74.3155 11.3399C75.8605 12.9458 77.5043 14.4691 78.9288 16.1931C81.1925 18.8583 82.8308 22.0693 83.7063 25.5571C84.1075 26.9658 84.2472 28.4458 84.1175 29.9127C83.9876 31.3795 83.591 32.8046 82.9502 34.1063C81.8785 36.0507 80.3714 37.6747 78.5671 38.8296C76.5598 40.3014 74.1518 41.0042 71.7294 40.825C69.4649 40.7136 67.3154 39.7191 65.6808 38.0265C63.9634 36.1035 62.1334 34.3009 60.2019 32.6302C58.9309 31.591 57.6157 30.6111 56.2901 29.6782C54.6872 28.6403 52.9115 27.9503 51.0631 27.6472C48.9605 27.2327 46.8191 27.0939 44.6856 27.2339C40.0215 27.3296 35.5087 29.0348 31.8102 32.0989C29.0387 34.3554 26.7575 37.2368 25.1261 40.5418C24.2023 42.5471 23.6196 44.7149 23.4058 46.942C23.2274 48.3157 23.1249 49.6997 23.099 51.0865C23.2023 55.04 24.159 58.9132 25.8932 62.3988C27.1745 65.1028 28.8797 67.5475 30.9337 69.6257C32.8441 71.4756 34.9605 73.0623 37.2345 74.3488C39.8225 75.8608 42.6807 76.7584 45.6172 76.9822C49.4732 77.416 53.3682 76.7861 56.9365 75.1519C58.6466 74.2855 60.2214 73.1384 61.6044 71.7509C63.9932 69.537 65.997 66.8817 67.5217 63.9102C68.0916 62.8358 68.486 61.6549 68.9681 60.5215C69.1105 60.179 69.2748 59.8366 69.4392 59.506C69.5374 59.3491 69.6519 59.2058 69.7811 59.0778Z" fill="#0284C7"/>
</svg>
