<svg width="212" height="89" viewBox="0 0 212 89" fill="none" xmlns="http://www.w3.org/2000/svg">
<path d="M212 0H0.239258C0.239258 0 17.2895 1.15169 27.9743 2.75C36.7435 4.06176 41.4724 5.29305 50.0874 7C62.8685 9.53242 70.2197 10.611 82.6948 13.75C93.9161 16.5735 100.033 18.4827 110.805 22C120.803 25.2649 123.121 26.0447 132.543 30C142.379 34.1292 148.184 36.8755 156.905 42C163.118 45.6508 169.128 48.787 174.895 52.75C181.602 57.3594 184.82 60.3806 190.637 65.5C195.641 69.9043 199.307 72.4374 203.38 77.25C207.176 81.7369 212 88.5 212 88.5V0Z" fill="#2D8CA8"/>
</svg>
